Coordinates
version=1
nRows=16
nColumns=36
inDegrees=yes

Units are S.I. units (second, meters, Newtons, ...)
If the header above contains a line with 'inDegrees', this indicates whether rotational values are in degrees (yes) or radians (no).

endheader
time	pelvis_tilt	pelvis_list	pelvis_rotation	pelvis_tx	pelvis_ty	pelvis_tz	hip_flexion_r	hip_adduction_r	hip_rotation_r	knee_angle_r	knee_angle_r_beta	ankle_angle_r	subtalar_angle_r	mtp_angle_r	hip_flexion_l	hip_adduction_l	hip_rotation_l	knee_angle_l	knee_angle_l_beta	ankle_angle_l	subtalar_angle_l	mtp_angle_l	lumbar_extension	lumbar_bending	lumbar_rotation	arm_flex_r	arm_add_r	arm_rot_r	elbow_flex_r	pro_sup_r	arm_flex_l	arm_add_l	arm_rot_l	elbow_flex_l	pro_sup_l
      1.35000000	     -2.85909228	      2.98539067	      7.90271177	      1.10408307	      0.92975478	     -0.20717888	     28.27796315	     -1.94035736	     -8.64081541	      5.78781180	      0.10101637	      8.37799627	      0.72485881	     -7.41648149	    -11.04064824	      5.99298916	     -2.68969458	      1.20196889	      0.02097831	     14.17661448	     25.40843348	     -7.41648149	     -9.11645299	    -18.40881865	     -5.66151959	     -8.81739312	     -5.09557563	      0.23689102	     35.55887620	     99.14891260	      1.28046775	    -12.95366596	    -15.80472329	     46.09087432	     98.54611501
      1.36000000	     -3.11534214	      2.95262451	      7.83195328	      1.11200776	      0.92864809	     -0.20782741	     28.29666002	     -1.60538682	     -9.62083257	      4.46426104	      0.07791605	      8.41931784	      1.49199796	     -7.41751213	    -11.24034243	      5.96677456	     -2.69048382	      1.30636829	      0.02280043	     14.08118663	     25.39655275	     -7.41751213	     -8.88389372	    -18.06565928	     -5.73184693	     -8.84981344	     -5.18766656	      0.02406150	     35.52398091	     99.15340867	      1.09640727	    -12.83423976	    -15.57915974	     45.71823137	     98.55109471
      1.37000000	     -3.24827917	      2.95876122	      7.77954046	      1.12002891	      0.92764847	     -0.20864527	     28.27873271	     -1.37224097	    -11.07664554	      3.58901809	      0.06264018	      9.07522192	      3.43670852	     -7.42269376	    -11.59039366	      5.96343760	     -2.73081240	      1.38739996	      0.02421470	     14.02776356	     25.48725973	     -7.42269376	     -8.83814928	    -17.67821902	     -5.62051684	     -9.00599899	     -5.23422721	     -0.62073070	     35.67548934	     99.24107561	      1.19249604	    -12.77972125	    -14.77000271	     44.90417130	     98.73948597
      1.38000000	     -3.54722637	      2.93911315	      7.66598264	      1.12808677	      0.92639134	     -0.20926277	     28.35703961	     -1.02655477	    -11.74106391	      2.72570142	      0.04757246	      9.03724285	      3.86740241	     -7.42360893	    -11.72548578	      5.95526109	     -2.71489227	      1.53998026	      0.02687773	     13.87792365	     25.44326834	     -7.42360893	     -8.59594495	    -17.31715476	     -5.70883631	     -8.99255669	     -5.32819259	     -0.74730798	     35.68460999	     99.25385193	      0.92350287	    -12.65432299	    -14.68484918	     44.53396473	     98.76089072
      1.39000000	     -3.73175557	      2.94272576	      7.58287504	      1.13625821	      0.92525668	     -0.21005157	     28.34946889	     -0.76428179	    -12.66232696	      2.21245755	      0.03861467	      9.30071763	      5.00749853	     -7.42632209	    -11.98698334	      5.95137297	     -2.67927757	      1.70024234	      0.02967483	     13.78257197	     25.42148548	     -7.42632209	     -8.51775873	    -16.91799424	     -5.70791741	     -9.00172921	     -5.43794726	     -0.97311261	     35.67269795	     99.29693376	      0.87187494	    -12.52499984	    -14.36870777	     43.81287875	     98.91026194
      1.40000000	     -3.95507211	      3.10092638	      7.38175258	      1.14431643	      0.92395299	     -0.21071622	     28.43619980	     -0.61244405	    -12.81210571	      2.06463391	      0.03603466	      9.35324500	      5.01452806	     -7.42639728	    -12.21830233	      6.14493510	     -2.59712920	      1.86194515	      0.03249707	     13.72420925	     25.44368340	     -7.42639728	     -8.49318404	    -16.69821797	     -5.66771185	     -8.97208542	     -5.52526378	     -1.00384252	     35.68283090	     99.29610224	      0.64843645	    -12.34970139	    -14.32336376	     43.70289156	     98.90987074
      1.41000000	     -4.28214195	      2.95256124	      7.35903592	      1.15290792	      0.92250560	     -0.21170335	     28.41904063	     -0.24533133	    -13.09905235	      1.75002335	      0.03054367	      9.52482981	      5.41198310	     -7.42698891	    -12.21688340	      5.97232148	     -2.62235316	      2.23599892	      0.03902554	     13.49328643	     25.36062908	     -7.42698891	     -8.16297328	    -16.07742863	     -5.93779329	     -8.94228006	     -5.69064500	     -1.12782789	     35.75793785	     99.29798135	      0.24679243	    -12.17805050	    -14.24406396	     43.03431544	     98.90992121
      1.42000000	     -4.47565591	      3.08346143	      7.23712169	      1.16147025	      0.92114812	     -0.21264985	     28.31021141	     -0.14207483	    -13.06719514	      1.82521492	      0.03185601	      9.53066386	      5.47622945	     -7.42707753	    -12.45811485	      6.11141698	     -2.47457990	      2.48508100	      0.04337285	     13.42974221	     25.39805456	     -7.42707753	     -8.10583566	    -15.77568513	     -5.90912517	     -8.96993934	     -5.81109122	     -1.16775987	     35.73885041	     99.29399426	     -0.03167606	    -11.95554260	    -14.19334621	     42.85498517	     98.90644107
      1.43000000	     -4.69457106	      2.97011818	      7.22908412	      1.17024574	      0.91967999	     -0.21386901	     28.24941600	      0.07673941	    -13.30994504	      2.22073986	      0.03875922	     10.17682875	      6.69742893	     -7.43081140	    -12.45029691	      5.94147028	     -2.71474399	      3.16008202	      0.05515384	     13.53299419	     25.69636905	     -7.43081140	     -7.93752519	    -15.08298751	     -5.93801271	     -9.06032713	     -5.98282165	     -1.54284769	     35.89621808	     99.30227454	      0.08630993	    -11.80173621	    -13.59173193	     41.25675276	     99.20313665
      1.44000000	     -4.85937704	      2.96973657	      7.17064894	      1.17917651	      0.91819765	     -0.21507769	     28.02446403	      0.24109767	    -12.92798068	      2.58255691	      0.04507412	     10.18819920	      6.74224780	     -7.43102540	    -12.67139622	      5.91605381	     -2.50738272	      3.53235393	      0.06165121	     13.40338593	     25.73765882	     -7.43102540	     -7.89454687	    -14.54450659	     -6.03009940	     -9.05626995	     -6.16871366	     -1.62271897	     35.92450207	     99.29743696	     -0.26813127	    -11.56854538	    -13.53690069	     41.00440602	     99.20583206
      1.45000000	     -5.03806261	      2.92710076	      7.15381326	      1.18836881	      0.91660031	     -0.21639383	     27.78245613	      0.42381879	    -12.46221193	      3.04081832	      0.05307229	     10.44582915	      6.66225618	     -7.43168561	    -12.79808041	      5.82908232	     -2.63606523	      4.08335563	      0.07126800	     13.32268039	     25.73257080	     -7.43168561	     -7.78240352	    -13.90328964	     -6.34111832	     -9.01847118	     -6.34751055	     -1.74728409	     36.09561502	     99.29794288	     -0.67818618	    -11.35059539	    -13.51492031	     40.27756239	     99.20944417
      1.46000000	     -5.20845838	      2.87796116	      7.13254394	      1.19774143	      0.91495479	     -0.21777631	     27.50176902	      0.61393427	    -11.94867824	      3.46215276	      0.06042596	     10.41868400	      6.75455006	     -7.43194905	    -13.01682543	      5.74533820	     -2.45517734	      4.50286257	      0.07858978	     13.20067643	     25.83442110	     -7.43194905	     -7.69643233	    -13.24833467	     -6.43079508	     -9.08416595	     -6.55571832	     -1.82903892	     36.11654382	     99.29161492	     -1.04561605	    -11.06050835	    -13.46312448	     39.91727351	     99.20987600
      1.47000000	     -5.40249383	      2.73095753	      7.11710057	      1.20744317	      0.91325963	     -0.21919386	     27.16539251	      0.91408588	    -11.44230745	      3.66756321	      0.06401105	     10.40537861	      6.84797997	     -7.43294638	    -13.10505102	      5.53440180	     -2.79343440	      5.13936260	      0.08969880	     13.15016163	     26.09191059	     -7.43294638	     -7.53291443	    -12.42371375	     -6.67845876	     -9.17941655	     -6.79168260	     -1.99602081	     36.29496466	     99.28545176	     -1.39375426	    -10.79511826	    -13.42872547	     38.88856621	     99.23069671
      1.48000000	     -5.57671625	      2.59410496	      7.09279803	      1.21719614	      0.91161085	     -0.22061750	     26.85064533	      1.18377484	    -10.98379160	      3.87781557	      0.06768065	     10.17421127	      7.04394107	     -7.43321495	    -13.34514925	      5.35782498	     -2.61733080	      5.53189283	      0.09654974	     12.98603705	     26.23368567	     -7.43321495	     -7.35582013	    -11.63913021	     -6.73003685	     -9.21074681	     -7.01276224	     -2.10560809	     36.30861320	     99.27362233	     -1.80647813	    -10.46577837	    -13.35011193	     38.53550310	     99.23625976
      1.49000000	     -5.75208098	      2.21998080	      7.10078408	      1.22736564	      0.91005970	     -0.22209368	     26.35112199	      1.70766934	    -10.67996386	      3.48953474	      0.06090387	      9.35281497	      7.37248384	     -7.43393680	    -13.47054228	      4.90463118	     -2.93069641	      6.10188447	      0.10649797	     12.76806069	     26.41318291	     -7.43393680	     -7.08926099	    -10.53438203	     -6.99604569	     -9.25602413	     -7.25369726	     -2.34637742	     36.37732458	     99.24116577	     -2.27346803	    -10.13232314	    -13.28627791	     37.59540443	     99.23609161
      1.50000000	     -5.81686672	      1.77881748	      7.01292493	      1.23747799	      0.90876603	     -0.22338056	     25.70544821	      2.36455015	     -9.93641094	      2.90183081	      0.05064650	      7.60860893	      6.40541430	     -7.43736600	    -13.62590174	      4.34400140	     -3.54776241	      6.81680445	      0.11897568	     12.84949500	     27.46097778	     -7.43736600	     -6.96863556	     -9.32431444	     -6.73616042	     -9.49050047	     -7.43360407	     -3.05797270	     36.49615516	     99.08799602	     -2.27204574	     -9.78704413	    -12.75014968	     36.29351883	     99.50050488
